<svg width="147" height="51" viewBox="0 0 147 51" fill="none" xmlns="http://www.w3.org/2000/svg">
<g clip-path="url(#clip0)">
<path d="M137.296 0H103.784C101.755 0 100.103 1.58746 100.103 3.53897V41.4892C100.103 41.9715 100.51 42.3626 101.012 42.3626C101.513 42.3626 101.92 41.9715 101.92 41.4892V12.0138H129.616C130.117 12.0138 130.524 11.6228 130.524 11.1405C130.524 10.6581 130.117 10.2671 129.616 10.2671H101.92V3.53897C101.92 2.55069 102.756 1.74687 103.784 1.74687H137.296C138.324 1.74687 139.16 2.55079 139.16 3.53897V10.2671H132.462C131.96 10.2671 131.553 10.6581 131.553 11.1405C131.553 11.6228 131.96 12.0138 132.462 12.0138H139.16V47.3456C139.16 48.3337 138.324 49.1377 137.297 49.1377H103.784C102.756 49.1377 101.92 48.3337 101.92 47.3456V44.5169C101.92 44.0346 101.513 43.6435 101.012 43.6435C100.51 43.6435 100.104 44.0346 100.104 44.5169V47.3456C100.104 49.297 101.755 50.8844 103.784 50.8844H137.297C139.326 50.8844 140.977 49.297 140.977 47.3456V3.53897C140.977 1.58746 139.326 0 137.296 0Z" fill="black"/>
<path d="M120.54 15.3685C111.813 15.3685 104.713 22.1956 104.713 30.5873C104.713 38.979 111.813 45.806 120.54 45.806C124.722 45.806 128.667 44.252 131.646 41.4305C132.003 41.0921 132.008 40.539 131.656 40.1954C131.304 39.8516 130.729 39.8474 130.371 40.1859C127.734 42.6837 124.243 44.0592 120.54 44.0592C112.815 44.0592 106.529 38.0158 106.529 30.5874C106.529 23.1591 112.815 17.1154 120.54 17.1154C128.266 17.1154 134.551 23.1589 134.551 30.5874C134.551 33.0301 133.864 35.4223 132.565 37.5052C132.307 37.9188 132.447 38.4552 132.877 38.7033C133.307 38.9516 133.865 38.8171 134.123 38.4035C135.591 36.0493 136.367 33.3465 136.367 30.5874C136.368 22.1956 129.267 15.3685 120.54 15.3685Z" fill="black"/>
<path d="M125.824 30.5873C125.824 28.3832 126.697 26.2899 128.282 24.6927C128.617 24.3552 128.617 23.8243 128.282 23.4868C126.241 21.4299 123.492 20.2972 120.54 20.2972C114.639 20.2972 109.838 24.9133 109.838 30.5874C109.838 36.2614 114.639 40.8776 120.54 40.8776C123.492 40.8776 126.241 39.7447 128.282 37.6879C128.617 37.3504 128.617 36.8195 128.282 36.4822C126.697 34.8848 125.824 32.7915 125.824 30.5873ZM120.54 39.1307C115.641 39.1307 111.655 35.2981 111.655 30.5874C111.655 25.8766 115.641 22.044 120.54 22.044C122.713 22.044 124.754 22.7837 126.37 24.1422C124.84 25.9663 124.008 28.2238 124.008 30.5873C124.008 32.9508 124.84 35.2083 126.37 37.0326C124.754 38.391 122.713 39.1307 120.54 39.1307Z" fill="black"/>
<path d="M133.188 2.7562C131.385 2.7562 129.918 4.16666 129.918 5.90031C129.918 7.63397 131.385 9.04443 133.188 9.04443C134.991 9.04443 136.458 7.63397 136.458 5.90031C136.458 4.16666 134.991 2.7562 133.188 2.7562ZM133.188 7.29765C132.387 7.29765 131.735 6.67074 131.735 5.90031C131.735 5.12989 132.387 4.50298 133.188 4.50298C133.989 4.50298 134.641 5.12989 134.641 5.90031C134.641 6.67084 133.989 7.29765 133.188 7.29765Z" fill="black"/>
<path d="M109.027 3.62952H105.394C104.893 3.62952 104.486 4.02059 104.486 4.5029C104.486 4.98521 104.893 5.37629 105.394 5.37629H109.027C109.529 5.37629 109.936 4.98521 109.936 4.5029C109.936 4.02059 109.529 3.62952 109.027 3.62952Z" fill="black"/>
<path d="M109.027 6.77364H105.394C104.893 6.77364 104.486 7.16471 104.486 7.64702C104.486 8.12933 104.893 8.52041 105.394 8.52041H109.027C109.529 8.52041 109.936 8.12933 109.936 7.64702C109.936 7.16471 109.529 6.77364 109.027 6.77364Z" fill="black"/>
<path d="M115.689 3.62952H112.056C111.554 3.62952 111.147 4.02059 111.147 4.5029C111.147 4.98521 111.554 5.37629 112.056 5.37629H115.689C116.19 5.37629 116.597 4.98521 116.597 4.5029C116.597 4.02059 116.19 3.62952 115.689 3.62952Z" fill="black"/>
<path d="M115.689 6.77364H112.056C111.554 6.77364 111.147 7.16471 111.147 7.64702C111.147 8.12933 111.554 8.52041 112.056 8.52041H115.689C116.19 8.52041 116.597 8.12933 116.597 7.64702C116.597 7.16471 116.19 6.77364 115.689 6.77364Z" fill="black"/>
</g>
<path d="M4.88672 11.9929L10.4648 25.9148L16.043 11.9929H18.9609V29.0554H16.7109V22.4109L16.9219 15.239L11.3203 29.0554H9.59766L4.00781 15.2742L4.23047 22.4109V29.0554H1.98047V11.9929H4.88672ZM22.0195 22.5984C22.0195 21.3562 22.2617 20.239 22.7461 19.2468C23.2383 18.2547 23.918 17.489 24.7852 16.95C25.6602 16.4109 26.6562 16.1414 27.7734 16.1414C29.5 16.1414 30.8945 16.739 31.957 17.9343C33.0273 19.1297 33.5625 20.7195 33.5625 22.7039V22.8562C33.5625 24.0906 33.3242 25.2 32.8477 26.1843C32.3789 27.1609 31.7031 27.9226 30.8203 28.4695C29.9453 29.0164 28.9375 29.2898 27.7969 29.2898C26.0781 29.2898 24.6836 28.6922 23.6133 27.4968C22.5508 26.3015 22.0195 24.7195 22.0195 22.7508V22.5984ZM24.1992 22.8562C24.1992 24.2625 24.5234 25.3914 25.1719 26.2429C25.8281 27.0945 26.7031 27.5203 27.7969 27.5203C28.8984 27.5203 29.7734 27.0906 30.4219 26.2312C31.0703 25.364 31.3945 24.1531 31.3945 22.5984C31.3945 21.2078 31.0625 20.0828 30.3984 19.2234C29.7422 18.3562 28.8672 17.9226 27.7734 17.9226C26.7031 17.9226 25.8398 18.3484 25.1836 19.2C24.5273 20.0515 24.1992 21.2703 24.1992 22.8562ZM42.4102 18.3211C42.082 18.2664 41.7266 18.239 41.3438 18.239C39.9219 18.239 38.957 18.8445 38.4492 20.0554V29.0554H36.2812V16.3758H38.3906L38.4258 17.8406C39.1367 16.7078 40.1445 16.1414 41.4492 16.1414C41.8711 16.1414 42.1914 16.1961 42.4102 16.3054V18.3211ZM52.2422 27.8015C51.3984 28.7937 50.1602 29.2898 48.5273 29.2898C47.1758 29.2898 46.1445 28.8992 45.4336 28.1179C44.7305 27.3289 44.375 26.1648 44.3672 24.6258V16.3758H46.5352V24.5672C46.5352 26.489 47.3164 27.45 48.8789 27.45C50.5352 27.45 51.6367 26.8328 52.1836 25.5984V16.3758H54.3516V29.0554H52.2891L52.2422 27.8015ZM59.6953 16.3758L59.7539 17.782C60.6836 16.6883 61.9375 16.1414 63.5156 16.1414C65.2891 16.1414 66.4961 16.8211 67.1367 18.1804C67.5586 17.5711 68.1055 17.0789 68.7773 16.7039C69.457 16.3289 70.2578 16.1414 71.1797 16.1414C73.9609 16.1414 75.375 17.614 75.4219 20.5593V29.0554H73.2539V20.6883C73.2539 19.782 73.0469 19.1062 72.6328 18.6609C72.2188 18.2078 71.5234 17.9812 70.5469 17.9812C69.7422 17.9812 69.0742 18.2234 68.543 18.7078C68.0117 19.1843 67.7031 19.8289 67.6172 20.6414V29.0554H65.4375V20.7468C65.4375 18.9031 64.5352 17.9812 62.7305 17.9812C61.3086 17.9812 60.3359 18.5867 59.8125 19.7976V29.0554H57.6445V16.3758H59.6953ZM89.4375 22.8562C89.4375 24.7937 88.9922 26.3523 88.1016 27.532C87.2109 28.7039 86.0156 29.2898 84.5156 29.2898C82.9141 29.2898 81.6758 28.7234 80.8008 27.5906L80.6953 29.0554H78.7031V11.0554H80.8711V17.7703C81.7461 16.6843 82.9531 16.1414 84.4922 16.1414C86.0312 16.1414 87.2383 16.7234 88.1133 17.8875C88.9961 19.0515 89.4375 20.6453 89.4375 22.6687V22.8562ZM87.2695 22.6101C87.2695 21.1336 86.9844 19.9929 86.4141 19.1883C85.8438 18.3836 85.0234 17.9812 83.9531 17.9812C82.5234 17.9812 81.4961 18.6453 80.8711 19.9734V25.4578C81.5352 26.7859 82.5703 27.45 83.9766 27.45C85.0156 27.45 85.8242 27.0476 86.4023 26.2429C86.9805 25.4383 87.2695 24.2273 87.2695 22.6101ZM94.5352 29.0554H92.3672V16.3758H94.5352V29.0554ZM92.1914 13.0125C92.1914 12.6609 92.2969 12.364 92.5078 12.1218C92.7266 11.8797 93.0469 11.7586 93.4688 11.7586C93.8906 11.7586 94.2109 11.8797 94.4297 12.1218C94.6484 12.364 94.7578 12.6609 94.7578 13.0125C94.7578 13.364 94.6484 13.657 94.4297 13.8914C94.2109 14.1258 93.8906 14.2429 93.4688 14.2429C93.0469 14.2429 92.7266 14.1258 92.5078 13.8914C92.2969 13.657 92.1914 13.364 92.1914 13.0125Z" fill="black"/>
<path d="M56.7156 37.2805C55.6703 36.98 54.9086 36.6119 54.4304 36.176C53.9565 35.7359 53.7195 35.1942 53.7195 34.551C53.7195 33.8231 54.0094 33.2222 54.5891 32.7483C55.1731 32.2701 55.9306 32.031 56.8616 32.031C57.4964 32.031 58.0613 32.1537 58.5564 32.3992C59.0558 32.6446 59.4409 32.9831 59.7117 33.4148C59.9868 33.8464 60.1243 34.3183 60.1243 34.8303H58.8992C58.8992 34.2717 58.7215 33.8337 58.366 33.5163C58.0105 33.1947 57.509 33.0339 56.8616 33.0339C56.2607 33.0339 55.7909 33.1672 55.4524 33.4338C55.1181 33.6962 54.9509 34.0622 54.9509 34.532C54.9509 34.9086 55.1096 35.2281 55.427 35.4905C55.7486 35.7486 56.2924 35.9856 57.0584 36.2014C57.8285 36.4172 58.4295 36.6563 58.8611 36.9187C59.297 37.1768 59.6186 37.4794 59.8259 37.8264C60.0375 38.1734 60.1433 38.5818 60.1433 39.0515C60.1433 39.8005 59.8513 40.4014 59.2673 40.8542C58.6834 41.3028 57.9026 41.5271 56.9251 41.5271C56.2903 41.5271 55.6979 41.4065 55.1477 41.1653C54.5976 40.9198 54.1723 40.5855 53.8718 40.1623C53.5756 39.7392 53.4275 39.2589 53.4275 38.7214H54.6526C54.6526 39.28 54.8578 39.7222 55.2683 40.0481C55.683 40.3697 56.2353 40.5305 56.9251 40.5305C57.5683 40.5305 58.0613 40.3993 58.4041 40.1369C58.7468 39.8746 58.9182 39.517 58.9182 39.0642C58.9182 38.6114 58.7595 38.2623 58.4422 38.0168C58.1248 37.7672 57.5493 37.5217 56.7156 37.2805ZM64.3772 41.5271C63.4462 41.5271 62.6887 41.2224 62.1048 40.613C61.5208 39.9994 61.2288 39.1806 61.2288 38.1565V37.9407C61.2288 37.2593 61.3578 36.6521 61.616 36.1189C61.8784 35.5814 62.2423 35.1625 62.7078 34.862C63.1775 34.5574 63.6853 34.405 64.2312 34.405C65.1241 34.405 65.8181 34.6991 66.3132 35.2873C66.8084 35.8756 67.0559 36.7177 67.0559 37.8137V38.3025H62.4031C62.42 38.9796 62.6168 39.5276 62.9934 39.9465C63.3743 40.3612 63.8567 40.5686 64.4407 40.5686C64.8554 40.5686 65.2066 40.484 65.4944 40.3147C65.7822 40.1454 66.034 39.9211 66.2498 39.6418L66.9671 40.2004C66.3915 41.0849 65.5283 41.5271 64.3772 41.5271ZM64.2312 35.3699C63.7573 35.3699 63.3595 35.5434 63.0379 35.8904C62.7162 36.2331 62.5173 36.7156 62.4412 37.3376H65.8816V37.2488C65.8478 36.6521 65.6869 36.1908 65.3992 35.865C65.1114 35.5349 64.7221 35.3699 64.2312 35.3699ZM71.7405 35.5857C71.5628 35.5561 71.3702 35.5412 71.1629 35.5412C70.3927 35.5412 69.8701 35.8692 69.595 36.5251V41.4001H68.4207V34.532H69.5632L69.5823 35.3254C69.9674 34.7118 70.5133 34.405 71.22 34.405C71.4485 34.405 71.622 34.4346 71.7405 34.4939V35.5857ZM75.2063 39.8069L76.9075 34.532H78.1072L75.6443 41.4001H74.7493L72.261 34.532H73.4607L75.2063 39.8069ZM80.513 41.4001H79.3386V34.532H80.513V41.4001ZM79.2434 32.7102C79.2434 32.5198 79.3006 32.359 79.4148 32.2278C79.5333 32.0966 79.7068 32.031 79.9353 32.031C80.1638 32.031 80.3373 32.0966 80.4558 32.2278C80.5743 32.359 80.6336 32.5198 80.6336 32.7102C80.6336 32.9006 80.5743 33.0593 80.4558 33.1863C80.3373 33.3132 80.1638 33.3767 79.9353 33.3767C79.7068 33.3767 79.5333 33.3132 79.4148 33.1863C79.3006 33.0593 79.2434 32.9006 79.2434 32.7102ZM85.1531 40.5686C85.572 40.5686 85.9381 40.4416 86.2512 40.1877C86.5644 39.9338 86.7379 39.6164 86.7717 39.2356H87.8826C87.8614 39.6291 87.726 40.0036 87.4763 40.3591C87.2267 40.7146 86.8923 40.9981 86.4734 41.2097C86.0587 41.4213 85.6186 41.5271 85.1531 41.5271C84.2179 41.5271 83.4731 41.216 82.9187 40.594C82.3686 39.9677 82.0935 39.1129 82.0935 38.0295V37.8327C82.0935 37.1641 82.2162 36.5696 82.4617 36.0491C82.7071 35.5285 83.0584 35.1244 83.5154 34.8367C83.9767 34.5489 84.5204 34.405 85.1467 34.405C85.9169 34.405 86.5559 34.6356 87.0637 35.0969C87.5758 35.5582 87.8487 36.157 87.8826 36.8933H86.7717C86.7379 36.449 86.5686 36.085 86.2639 35.8015C85.9635 35.5137 85.5911 35.3699 85.1467 35.3699C84.5501 35.3699 84.0867 35.5857 83.7566 36.0173C83.4308 36.4447 83.2678 37.0647 83.2678 37.8772V38.0993C83.2678 38.8907 83.4308 39.5001 83.7566 39.9275C84.0825 40.3549 84.5479 40.5686 85.1531 40.5686ZM92.053 41.5271C91.122 41.5271 90.3645 41.2224 89.7805 40.613C89.1965 39.9994 88.9046 39.1806 88.9046 38.1565V37.9407C88.9046 37.2593 89.0336 36.6521 89.2918 36.1189C89.5541 35.5814 89.9181 35.1625 90.3836 34.862C90.8533 34.5574 91.3611 34.405 91.907 34.405C92.7999 34.405 93.4939 34.6991 93.989 35.2873C94.4841 35.8756 94.7317 36.7177 94.7317 37.8137V38.3025H90.0789C90.0958 38.9796 90.2926 39.5276 90.6692 39.9465C91.0501 40.3612 91.5325 40.5686 92.1165 40.5686C92.5312 40.5686 92.8824 40.484 93.1702 40.3147C93.4579 40.1454 93.7097 39.9211 93.9256 39.6418L94.6428 40.2004C94.0673 41.0849 93.204 41.5271 92.053 41.5271ZM91.907 35.3699C91.433 35.3699 91.0353 35.5434 90.7136 35.8904C90.392 36.2331 90.1931 36.7156 90.117 37.3376H93.5574V37.2488C93.5235 36.6521 93.3627 36.1908 93.075 35.865C92.7872 35.5349 92.3979 35.3699 91.907 35.3699Z" fill="black"/>
<line x1="2.35181" y1="37.1316" x2="50.5677" y2="37.1316" stroke="black"/>
<defs>
<clipPath id="clip0">
<rect width="52.9199" height="50.8845" fill="white" transform="translate(94.0802)"/>
</clipPath>
</defs>
</svg>
